# xmcd CD database file
#
# Track frame offsets:
#	150
#	21901
#	38027
#	51378
#	70203
#	85873
#	101695
#	117443
#	136779
#	152839
#	170089
#	181183
#	197158
#	207434
#	226406
#	241931
#	261345
#	276273
#	299223
#	318348
#	334018
#
# Disc length: 4733 seconds
#
# Revision: 1
# Processed by: cddbd v1.5.2PL0 Copyright (c) Steve Scherf et al.
# Submitted via: CDex 1.51
#
DISCID=41127b15
DTITLE=Bee Gees - XTA-96
DYEAR=1900
DGENRE=Blues
TTITLE0=Bee Gees/Alone
TTITLE1=Bee Gees/Boogie Child
TTITLE2=Bee Gees/Holiday
TTITLE3=Bee Gees/How Can You Mend A Broken Heart
TTITLE4=Bee Gees/How Deep Is Your Love
TTITLE5=Bee Gees/I Gotta Get A Message To You
TTITLE6=Bee Gees/I Started A Joke
TTITLE7=Bee Gees/Jive Talkin'
TTITLE8=Bee Gees/Lonely Days
TTITLE9=Bee Gees/Love So Right
TTITLE10=Bee Gees/Massachusetts
TTITLE11=Bee Gees/More Than A Woman
TTITLE12=Bee Gees/New York Mining Disaster
TTITLE13=Bee Gees/Nights On Broadway
TTITLE14=Bee Gees/Run To Me
TTITLE15=Bee Gees/Stayin' Alive
TTITLE16=Bee Gees/To Love Somebody
TTITLE17=Bee Gees/Too Much Heaven
TTITLE18=Bee Gees/Tradgedy
TTITLE19=Bee Gees/Words
TTITLE20=Bee Gees/You Should Be Dancing
EXTD=
EXTT0=
EXTT1=
EXTT2=
EXTT3=
EXTT4=
EXTT5=
EXTT6=
EXTT7=
EXTT8=
EXTT9=
EXTT10=
EXTT11=
EXTT12=
EXTT13=
EXTT14=
EXTT15=
EXTT16=
EXTT17=
EXTT18=
EXTT19=
EXTT20=
PLAYORDER=
